<?xml version="1.0"?>
<svg xmlns="http://www.w3.org/2000/svg" xmlns:xlink="http://www.w3.org/1999/xlink" version="1.1" id="Capa_1" x="0px" y="0px" viewBox="0 0 512 512" style="enable-background:new 0 0 512 512;" xml:space="preserve" width="512px" height="512px" class=""><g><circle style="fill:#1B67D9" cx="256" cy="256" r="256" data-original="#3DE000" class="active-path" data-old_color="#0257D5"/><path style="fill:#014EBF" d="M512,256c0-16.196-1.521-32.036-4.397-47.397L432,133l-63.839,44.739L323.934,133l-73.827,127.17  L123.091,133L80,379l128.603,128.603C223.964,510.479,239.804,512,256,512C397.385,512,512,397.385,512,256z" data-original="#00CC00" class="" data-old_color="#014ebf"/><path style="fill:#FFFFFF;" d="M388.909,133c0.003,0.167,0.013,0.332,0.013,0.5c0,17.949-14.551,32.5-32.5,32.5  s-32.5-14.551-32.5-32.5c0-0.168,0.01-0.333,0.013-0.5H188.066c0.003,0.167,0.013,0.332,0.013,0.5c0,17.949-14.551,32.5-32.5,32.5  s-32.5-14.551-32.5-32.5c0-0.168,0.01-0.333,0.013-0.5H80v246h352V133H388.909z" data-original="#FFFFFF"/><path style="fill:#EBEBF0;" d="M432,133h-43.091c0.003,0.167,0.013,0.332,0.013,0.5c0,17.949-14.551,32.5-32.5,32.5  s-32.5-14.551-32.5-32.5c0-0.168,0.01-0.333,0.013-0.5h-68.363v246H432V133z" data-original="#EBEBF0" class=""/><rect x="118.49" y="231.12" style="fill:#5F6C75;" width="137.51" height="20.751" data-original="#5F6C75"/><rect x="186.52" y="231.12" style="fill:#4B5568;" width="69.48" height="20.751" data-original="#4B5568" class=""/><rect x="118.49" y="272.12" style="fill:#D2D2D7;" width="137.51" height="20.751" data-original="#D2D2D7" class=""/><rect x="186.52" y="272.12" style="fill:#C8BEB9;" width="69.48" height="20.751" data-original="#C8BEB9" class=""/><rect x="118.49" y="313.12" style="fill:#D2D2D7;" width="137.51" height="20.751" data-original="#D2D2D7" class=""/><rect x="186.52" y="313.12" style="fill:#C8BEB9;" width="69.48" height="20.751" data-original="#C8BEB9" class=""/><circle style="fill:#FA5D0F;" cx="341.87" cy="236.38" r="31.615" data-original="#FA5D0F"/><path style="fill:#D84C0F" d="M373.486,236.384c0-17.458-14.149-31.61-31.605-31.615v63.23  C359.337,267.993,373.486,253.841,373.486,236.384z" data-original="#D84C0F" class=""/><path style="fill:#FA5D0F;" d="M273,344.852c0-38.037,30.835-68.871,68.871-68.871s68.871,30.835,68.871,68.871H273z" data-original="#FA5D0F"/><path style="fill:#D84C0F" d="M341.881,275.98v68.871h68.862C410.743,306.818,379.913,275.986,341.881,275.98z" data-original="#D84C0F" class=""/></g> </svg>
