<?xml version="1.0"?>
<svg xmlns="http://www.w3.org/2000/svg" xmlns:xlink="http://www.w3.org/1999/xlink" version="1.1" id="Capa_1" x="0px" y="0px" viewBox="0 0 512.001 512.001" style="enable-background:new 0 0 512.001 512.001;" xml:space="preserve" width="512px" height="512px" class=""><g><circle style="fill:#FFD15D" cx="256" cy="256.001" r="256" data-original="#005ECE" class="" data-old_color="#005ECE"/><path style="fill:#F9B54C" d="M203.32,175.682c-3.301-3.396-7.433-5.98-12.068-7.425v-0.078h-0.253  c-0.101-0.03-0.203-0.06-0.304-0.09l-19.478-19.945h-28.26v18.84l14.711,14.47c-1.91,3.331-3.174,7.081-3.621,11.078  c-4.28-2.519-9.264-3.97-14.589-3.97c-15.91,0-28.809,12.898-28.809,28.809c0,5.325,1.451,10.309,3.97,14.589  c-14.388,1.608-25.577,13.806-25.577,28.624c0,8.096,3.34,15.413,8.718,20.647l114.391,114.394  c-8.918,9.131-14.414,21.62-14.414,35.393v25.331l55.652,55.639c0.869,0.009,1.739,0.013,2.61,0.013c141.384,0,256-114.616,256-256  c0-0.402-0.001-0.802-0.003-1.203L329.983,72.784l-18.371,18.371L265.42,44.522h-18.84v28.261l33.948,33.391v0.404  c-7.249-4.078-15.616-6.404-24.527-6.404c-12.299,0-23.563,4.431-32.284,11.785l-39.177-39.177l-13.322,13.323l40.573,40.573  c-3.763,7.033-5.898,15.07-5.898,23.604c0,13.977,5.723,26.615,14.954,35.703l2.675,2.676c-2.091,0.17-4.12,0.564-6.062,1.159  L203.32,175.682z" data-original="#00479B" class="" data-old_color="#00479B"/><path style="fill:#3E3D42;" d="M315.106,456.348H197.738v-25.332c0-27.98,22.683-50.662,50.662-50.662h16.043  c27.98,0,50.662,22.683,50.662,50.662V456.348z" data-original="#3E3D42"/><path style="fill:#2D2D30;" d="M264.444,380.354h-16.887v75.994h67.551v-25.332C315.106,403.037,292.424,380.354,264.444,380.354z" data-original="#2D2D30"/><path style="fill:#1D1D1F;" d="M348.881,253.698c0-13.99-11.341-25.332-25.332-25.332c-5.265,0-10.154,1.607-14.206,4.356  c-15.489-13.241-35.59-21.244-57.565-21.244c-48.965,0-88.659,39.694-88.659,88.659s39.694,88.659,88.659,88.659  c24.811,0,47.236-10.195,63.329-26.62v-60.665c9.177-4.361,15.748-13.31,16.75-23.884  C341.766,274.189,348.881,264.777,348.881,253.698z" data-original="#1D1D1F"/><path d="M323.551,228.366c-5.265,0-10.154,1.607-14.206,4.356c-15.49-13.241-35.591-21.244-57.567-21.244  c-1.416,0-2.823,0.037-4.222,0.102v177.114c1.399,0.066,2.806,0.102,4.222,0.102c24.811,0,47.236-10.195,63.329-26.62v-60.665  c9.177-4.361,15.748-13.31,16.75-23.884c9.908-3.439,17.025-12.851,17.025-23.93C348.881,239.708,337.54,228.366,323.551,228.366z" data-original="#000000"/><path style="fill:#FFDAAA;" d="M331.852,277.692c-1.45,14.967-14.062,26.668-29.411,26.668c-10.752,0-20.161-5.743-25.332-14.327  c-5.171,8.584-14.58,14.327-25.332,14.327c-1.434,0-2.843-0.108-4.222-0.305v17.193l0,0c-9.288,0-16.887,7.6-16.887,16.887l0,0  c0,9.288,7.6,16.887,16.887,16.887l0,0v33.775c8.444,0,11.081,0,16.887,0c41.971,0,75.994-34.023,75.994-75.994  C340.438,300.136,337.335,288.194,331.852,277.692z" data-original="#FFDAAA" class=""/><circle cx="287.31" cy="323.707" r="10.907" data-original="#000000"/><path style="fill:#F072AE;" d="M331.975,347.682c0.01-0.366,0.019-0.733,0.019-1.103h-33.775c0,12.692,6.223,23.204,14.342,25.045  C320.553,365.078,327.187,356.935,331.975,347.682z" data-original="#F072AE"/><path style="fill:#FFA5B5;" d="M250.721,231.961c2.519-4.28,3.97-9.264,3.97-14.59c0-15.91-12.898-28.808-28.808-28.808  c-5.326,0-10.309,1.45-14.59,3.97c-1.607-14.388-13.806-25.577-28.623-25.577s-27.016,11.188-28.623,25.577  c-4.28-2.519-9.264-3.97-14.59-3.97c-15.91,0-28.808,12.898-28.808,28.808c0,5.326,1.45,10.309,3.97,14.59  c-14.388,1.607-25.577,13.805-25.577,28.623l0,0c0,15.91,12.898,28.808,28.808,28.808h129.637c15.91,0,28.808-12.898,28.808-28.808  l0,0C276.296,245.766,265.108,233.568,250.721,231.961z" data-original="#FFA5B5"/><g>
	<path style="fill:#F072AE;" d="M217.997,245.454c4.205-4.205,9.796-6.52,15.742-6.52l-0.001,11.13   c-2.972-0.001-5.768,1.158-7.869,3.26c-2.101,2.103-3.26,4.897-3.26,7.869c0,2.974,1.158,5.769,3.26,7.871s4.897,3.26,7.87,3.26   l0.001,11.13c-5.947,0.001-11.537-2.315-15.742-6.52s-6.52-9.795-6.519-15.741C211.477,255.249,213.792,249.66,217.997,245.454z" data-original="#F072AE"/>
	<path style="fill:#F072AE;" d="M166.935,223.285c0-5.947-2.315-11.537-6.52-15.742l-7.869,7.87c2.103,2.103,3.26,4.897,3.26,7.87   s-1.158,5.768-3.261,7.87c-2.101,2.103-4.896,3.26-7.869,3.26c-2.973,0-5.769-1.158-7.869-3.26l-7.871,7.869   c2.106,2.106,4.56,3.739,7.231,4.843l-0.009,0.022c2.763,1.096,4.934,3.203,6.113,5.934c1.179,2.729,1.224,5.754,0.127,8.518   c-1.095,2.763-3.203,4.934-5.933,6.113c-2.729,1.179-5.754,1.224-8.517,0.128l-4.106,10.346c5.527,2.194,11.577,2.103,17.036-0.255   c5.459-2.357,9.673-6.701,11.865-12.227c2.194-5.527,2.103-11.577-0.255-17.036c-0.159-0.368-0.327-0.73-0.504-1.086   c3.139-1.087,6.014-2.881,8.431-5.298C164.62,234.822,166.935,229.231,166.935,223.285z" data-original="#F072AE"/>
</g><polygon style="fill:#898890;" points="278.776,210.963 233.224,210.963 246.89,233.74 265.11,233.74 " data-original="#898890"/><polygon style="fill:#57565C;" points="256,210.963 256,233.74 265.11,233.74 278.776,210.963 " data-original="#57565C"/><rect x="233.227" y="188.183" style="fill:#C6C5CA;" width="45.552" height="37.12" data-original="#C6C5CA"/><rect x="256" y="188.183" style="fill:#ACABB1;" width="22.776" height="37.12" data-original="#ACABB1"/><path style="fill:#9BFBFF;" d="M306.107,150.281c0-27.674-22.433-50.107-50.107-50.107s-50.107,22.433-50.107,50.107  c0,17.589,9.065,33.06,22.776,42.001v16.242h54.663v-16.242C297.042,183.341,306.107,167.871,306.107,150.281z" data-original="#9BFBFF"/><path style="fill:#46F8FF;" d="M256,100.174v108.349h27.331v-16.242c13.712-8.941,22.776-24.411,22.776-42.001  C306.107,122.608,283.674,100.174,256,100.174z" data-original="#46F8FF"/><g>
	<path style="fill:#FFFFFF" d="M270.316,149.93c0-7.894-6.422-14.316-14.316-14.316s-14.316,6.422-14.316,14.316   c0,6.725,4.668,12.367,10.93,13.894v44.699h6.772v-44.699C265.648,162.297,270.316,156.656,270.316,149.93z M256,157.088   c-3.947,0-7.158-3.211-7.158-7.158s3.211-7.158,7.158-7.158s7.158,3.211,7.158,7.158S259.947,157.088,256,157.088z" data-original="#FFFFFF" class="active-path"/>
	<rect x="142.959" y="148.147" style="fill:#FFFFFF" width="28.261" height="18.84" data-original="#FFFFFF" class="active-path"/>
	<rect x="340.781" y="148.147" style="fill:#FFFFFF" width="28.261" height="18.84" data-original="#FFFFFF" class="active-path"/>
	
		<rect x="312.517" y="218.804" transform="matrix(0.7071 0.7071 -0.7071 0.7071 257.0515 -164.1297)" style="fill:#FFFFFF" width="28.261" height="18.84" data-original="#FFFFFF" class="active-path"/>
	
		<rect x="173.739" y="80.018" transform="matrix(0.7071 0.7071 -0.7071 0.7071 118.2684 -106.6479)" style="fill:#FFFFFF" width="28.261" height="18.84" data-original="#FFFFFF" class="active-path"/>
	
		<rect x="173.726" y="218.8" transform="matrix(-0.7071 0.7071 -0.7071 -0.7071 482.0672 256.7614)" style="fill:#FFFFFF" width="28.261" height="18.84" data-original="#FFFFFF" class="active-path"/>
	
		<rect x="312.519" y="80.014" transform="matrix(-0.7071 0.7071 -0.7071 -0.7071 620.8645 -78.3016)" style="fill:#FFFFFF" width="28.261" height="18.84" data-original="#FFFFFF" class="active-path"/>
	<rect x="246.584" y="44.522" style="fill:#FFFFFF" width="18.84" height="28.261" data-original="#FFFFFF" class="active-path"/>
</g></g> </svg>
