<?xml version="1.0"?>
<svg xmlns="http://www.w3.org/2000/svg" xmlns:xlink="http://www.w3.org/1999/xlink" version="1.1" id="Capa_1" x="0px" y="0px" viewBox="0 0 512 512" style="enable-background:new 0 0 512 512;" xml:space="preserve" width="512px" height="512px" class=""><g><circle style="fill:#FF8F8F" cx="256" cy="256" r="256" data-original="#57A4FF" class="" data-old_color="#ff8f8f"/><path style="fill:#E58080" d="M510.22,286.17L337.832,113.782C317.495,91.73,288.363,77.913,256,77.913l0,0l0,0  c-17.849,0-34.712,4.208-49.664,11.676c-1.943-0.352-3.942-0.545-5.988-0.545c-18.44,0-33.388,14.946-33.391,33.385  c-0.114,0.15-0.225,0.301-0.336,0.452c-18.715,2.844-33.055,19.003-33.055,38.511c0,10.615,4.252,20.234,11.137,27.261  c-0.001,0.189-0.007,0.376-0.007,0.565v14.497c-6.133-2.174-12.729-3.367-19.606-3.367l0,0l0,0  c-32.416,0-58.695,26.279-58.695,58.695v22.304v1.174v1.174c0,3.101,1.362,5.892,3.507,7.829l29.845,29.845  c-11.288,5.867-19.004,17.66-19.004,31.261v14.673l142.637,142.637C234.061,511.3,244.95,512,256.001,512  C387.176,512,495.289,413.334,510.22,286.17z" data-original="#2488FF" class="active-path" data-old_color="#e58080"/><path style="fill:#FFFFFF;" d="M431.259,367.304h-88.696V352.63c0-19.45,15.767-35.218,35.218-35.218h18.261  c19.45,0,35.218,15.767,35.218,35.218L431.259,367.304L431.259,367.304z" data-original="#FFFFFF" class=""/><path style="fill:#E1E3FA;" d="M396.041,317.413h-9.13v49.891h44.348V352.63C431.259,333.181,415.491,317.413,396.041,317.413z" data-original="#E1E3FA"/><polygon points="380.4,352.956 386.911,361.761 386.911,361.835 386.911,361.835 386.911,361.761 386.911,361.761 393.421,352.956   390.322,328.927 397.998,317.413 375.824,317.413 383.499,328.927 " data-original="#000000"/><path style="fill:#1D1D1F;" d="M386.911,200.348L386.911,200.348c-32.416,0-58.695,26.279-58.695,58.695v23.479h117.392v-23.479  C445.606,226.627,419.327,200.348,386.911,200.348z" data-original="#1D1D1F" class=""/><path id="SVGCleanerId_0" d="M386.911,200.348L386.911,200.348v82.174h58.695v-23.479  C445.606,226.627,419.327,200.348,386.911,200.348z" data-original="#000000"/><g>
	<path id="SVGCleanerId_0_1_" d="M386.911,200.348L386.911,200.348v82.174h58.695v-23.479   C445.606,226.627,419.327,200.348,386.911,200.348z" data-original="#000000"/>
</g><path style="fill:#FFC477;" d="M351.693,294.261h-12.914c-5.811,0-10.565-4.754-10.565-10.565v-2.347  c0-5.811,4.754-10.565,10.565-10.565h12.914V294.261z" data-original="#FFC477"/><path style="fill:#FFB655;" d="M422.127,294.261h12.914c5.811,0,10.565-4.754,10.565-10.565v-2.347  c0-5.811-4.754-10.565-10.565-10.565h-12.914V294.261z" data-original="#FFB655"/><path style="fill:#FFDAAA;" d="M406.384,252.468c-1.864-1.398-3.624-2.873-5.281-4.405c-16.742,10.872-36.441,16.849-56.842,16.849  h-9.849c-0.213,1.928-0.326,3.886-0.326,5.869c0,29.175,23.651,52.826,52.826,52.826c29.175,0,52.826-23.651,52.826-52.826  c0-2.001-0.116-3.976-0.332-5.919C428.589,264.426,416.83,260.304,406.384,252.468z" data-original="#FFDAAA" class=""/><path style="fill:#FFC477;" d="M439.404,264.863c-10.817-0.437-22.574-4.559-33.021-12.394c-1.864-1.398-3.624-2.873-5.281-4.405  c-4.529,2.941-9.275,5.52-14.191,7.723v67.822c29.175,0,52.826-23.651,52.826-52.826  C439.737,268.781,439.621,266.807,439.404,264.863z" data-original="#FFC477"/><circle cx="359.279" cy="278.361" r="7.582" data-original="#000000"/><circle cx="414.542" cy="278.361" r="7.582" data-original="#000000"/><path style="fill:#F072AE;" d="M386.911,311.869c9.725,0,17.608-7.884,17.608-17.608h-35.218  C369.301,303.986,377.185,311.869,386.911,311.869z" data-original="#F072AE"/><path style="fill:#ED539D;" d="M386.911,294.261v17.608c9.725,0,17.608-7.884,17.608-17.608H386.911z" data-original="#ED539D"/><path style="fill:#FFFFFF;" d="M169.437,367.304H80.741V352.63c0-19.45,15.767-35.218,35.218-35.218h18.261  c19.45,0,35.218,15.767,35.218,35.218V367.304z" data-original="#FFFFFF" class=""/><path style="fill:#E1E3FA;" d="M134.22,317.413h-9.13v49.891h44.348V352.63C169.437,333.181,153.67,317.413,134.22,317.413z" data-original="#E1E3FA"/><polygon points="118.579,352.956 125.089,361.761 125.089,361.835 125.089,361.835 125.089,361.761 125.089,361.761 131.6,352.956   128.501,328.927 136.176,317.413 114.002,317.413 121.678,328.927 " data-original="#000000"/><path style="fill:#1D1D1F;" d="M125.089,200.348L125.089,200.348c-32.416,0-58.695,26.279-58.695,58.695v23.479h117.392v-23.479  C183.786,226.627,157.507,200.348,125.089,200.348z" data-original="#1D1D1F" class=""/><path id="SVGCleanerId_1" d="M125.089,200.348L125.089,200.348v82.174h58.695v-23.479  C183.786,226.627,157.507,200.348,125.089,200.348z" data-original="#000000"/><g>
	<path id="SVGCleanerId_1_1_" d="M125.089,200.348L125.089,200.348v82.174h58.695v-23.479   C183.786,226.627,157.507,200.348,125.089,200.348z" data-original="#000000"/>
</g><path style="fill:#FFC477;" d="M89.873,294.261H76.959c-5.811,0-10.565-4.754-10.565-10.565v-2.347  c0-5.811,4.754-10.565,10.565-10.565h12.914C89.873,270.783,89.873,294.261,89.873,294.261z" data-original="#FFC477"/><path style="fill:#FFB655;" d="M160.307,294.261h12.914c5.811,0,10.565-4.754,10.565-10.565v-2.347  c0-5.811-4.754-10.565-10.565-10.565h-12.914V294.261z" data-original="#FFB655"/><path style="fill:#FFDAAA;" d="M144.563,252.468c-1.864-1.398-3.624-2.873-5.281-4.405c-16.742,10.872-36.441,16.849-56.842,16.849  H72.59c-0.213,1.928-0.326,3.886-0.326,5.869c0,29.175,23.651,52.826,52.826,52.826s52.826-23.651,52.826-52.826  c0-2.001-0.116-3.976-0.332-5.919C166.767,264.426,155.009,260.304,144.563,252.468z" data-original="#FFDAAA" class=""/><path style="fill:#FFC477;" d="M177.584,264.863c-10.817-0.437-22.574-4.559-33.021-12.394c-1.864-1.398-3.624-2.873-5.281-4.405  c-4.529,2.941-9.275,5.52-14.191,7.723v67.822c29.175,0,52.826-23.651,52.826-52.826  C177.916,268.781,177.801,266.807,177.584,264.863z" data-original="#FFC477"/><circle cx="97.458" cy="278.361" r="7.582" data-original="#000000"/><circle cx="152.721" cy="278.361" r="7.582" data-original="#000000"/><path style="fill:#F072AE;" d="M125.089,311.869c9.725,0,17.608-7.884,17.608-17.608h-35.217  C107.481,303.986,115.365,311.869,125.089,311.869z" data-original="#F072AE"/><path style="fill:#ED539D;" d="M125.089,294.261v17.608c9.725,0,17.608-7.884,17.608-17.608H125.089z" data-original="#ED539D"/><path style="fill:#FFFFFF;" d="M345.043,400.696H166.957v-33.391c0-36.883,29.9-66.783,66.783-66.783h44.522  c36.883,0,66.783,29.9,66.783,66.783V400.696z" data-original="#FFFFFF" class=""/><path style="fill:#E1E3FA;" d="M278.261,300.522H256v100.174h89.043v-33.391C345.043,330.421,315.144,300.522,278.261,300.522z" data-original="#E1E3FA"/><polygon points="278.261,300.522 233.739,300.522 249.15,323.639 233.739,400.696 256,400.696 278.261,400.696 262.85,323.639 " data-original="#000000"/><path style="fill:#3E3D42;" d="M166.957,367.304v33.391H256l-33.095-99.286C191.176,306.588,166.957,334.112,166.957,367.304z" data-original="#3E3D42"/><path style="fill:#2D2D30;" d="M289.095,301.41L256,400.696h89.043v-33.391C345.043,334.112,320.824,306.588,289.095,301.41z" data-original="#2D2D30" class=""/><path style="fill:#1D1D1F;" d="M256,77.913L256,77.913c-17.85,0-34.714,4.208-49.665,11.676c-1.943-0.352-3.942-0.545-5.987-0.545  c-18.44,0-33.388,14.946-33.391,33.385c-0.112,0.15-0.225,0.301-0.336,0.452c-18.715,2.844-33.055,19.002-33.055,38.511  c0,10.615,4.252,20.234,11.137,27.261c0,0.188-0.007,0.376-0.007,0.565v44.522h222.609v-44.522  C367.304,127.745,317.472,77.913,256,77.913z" data-original="#1D1D1F" class=""/><path d="M256,77.913L256,77.913v155.826h111.304v-44.522C367.304,127.745,317.472,77.913,256,77.913z" data-original="#000000"/><path style="fill:#FFC477;" d="M189.217,256H164.73c-11.019,0-20.035-9.016-20.035-20.035v-4.452  c0-11.019,9.016-20.035,20.035-20.035h24.487V256z" data-original="#FFC477"/><path style="fill:#FFB655;" d="M322.783,256h24.487c11.019,0,20.035-9.016,20.035-20.035v-4.452  c0-11.019-9.016-20.035-20.035-20.035h-24.487V256z" data-original="#FFB655"/><path style="fill:#FFDAAA;" d="M292.927,176.75c-3.536-2.652-6.872-5.447-10.016-8.353c-31.748,20.617-69.103,31.951-107.788,31.951  h-18.678c-0.404,3.655-0.619,7.367-0.619,11.13c0,55.325,44.849,100.174,100.174,100.174s100.174-44.849,100.174-100.174  c0-3.795-0.218-7.54-0.63-11.225C335.034,199.424,312.737,191.607,292.927,176.75z" data-original="#FFDAAA" class=""/><path style="fill:#FFC477;" d="M355.544,200.253c-20.511-0.829-42.808-8.646-62.616-23.503c-3.536-2.652-6.872-5.447-10.016-8.353  c-8.587,5.576-17.588,10.467-26.911,14.645v128.61c55.325,0,100.174-44.849,100.174-100.174  C356.174,207.683,355.956,203.938,355.544,200.253z" data-original="#FFC477"/><circle cx="203.598" cy="225.859" r="14.377" data-original="#000000"/><circle cx="308.402" cy="225.859" r="14.377" data-original="#000000"/><path style="fill:#F072AE;" d="M256,289.391c18.442,0,33.391-14.949,33.391-33.391h-66.783  C222.609,274.441,237.558,289.391,256,289.391z" data-original="#F072AE"/><path style="fill:#ED539D;" d="M256,256v33.391c18.442,0,33.391-14.949,33.391-33.391H256z" data-original="#ED539D"/></g> </svg>
